<?xml version="1.0" standalone="no"?>
<!DOCTYPE svg PUBLIC "-//W3C//DTD SVG 1.1//EN" "http://www.w3.org/Graphics/SVG/1.1/DTD/svg11.dtd" >
<svg xmlns="http://www.w3.org/2000/svg">
<metadata>Generated by IcoMoon</metadata>
<defs>
<font id="icomoon" horiz-adv-x="1024">
<font-face units-per-em="1024" ascent="960" descent="-64" />
<missing-glyph horiz-adv-x="1024" />
<glyph unicode="&#x20;" horiz-adv-x="512" d="" />
<glyph unicode="&#xe900;" glyph-name="1" d="M1024 374.857h-438.857v-438.857h-146.286v438.857h-438.857v146.286h438.857v438.857h146.286v-438.857h438.857v-146.286z" />
<glyph unicode="&#xe901;" glyph-name="2" horiz-adv-x="970" d="M952.536 32.472l-160.391 173.218c62.952 75.661 101.161 173.85 101.161 280.963 0 0.224 0 0.448-0.001 0.673v-0.035c0 241.448-193.374 437.841-431.212 437.841-237.676 0-431.104-196.392-431.104-437.841 0-241.556 193.428-437.949 431.104-437.949 0.313-0.001 0.684-0.001 1.054-0.001 92.362 0 177.782 29.722 247.217 80.123l-1.218-0.842 162.385-175.32c10.725-11.372 25.061-17.516 40.583-17.516 14.552 0 28.349 5.605 38.858 15.899 10.66 10.488 17.265 25.069 17.265 41.193 0 15.338-5.977 29.28-15.728 39.624l0.027-0.029zM462.093 810.927c175.751 0 318.733-145.246 318.733-323.638 0-178.553-142.983-323.692-318.733-323.692-175.643 0-318.626 145.139-318.626 323.692 0 178.392 142.983 323.638 318.626 323.638z" />
<glyph unicode="&#xe902;" glyph-name="3" horiz-adv-x="1078" d="M987.837 489.93h-109.999c-20.103 164.217-151.929 294.75-317.548 314.368v113.179c0 23.038-18.676 41.715-41.715 41.715s-41.715-18.676-41.715-41.715v0-112.802c-167.020-18.378-300.248-149.45-320.512-314.745h-107.035c-23.038 0-41.715-18.676-41.715-41.715s18.676-41.715 41.715-41.715v0h106.442c18.432-167.343 152.63-300.571 321.105-319.057v-108.49c0-23.038 18.676-41.715 41.715-41.715s41.715 18.676 41.715 41.715v0 108.813c167.074 19.725 299.816 152.36 318.141 318.733h109.406c22.137 1.16 39.647 19.393 39.647 41.715s-17.51 40.554-39.544 41.71l-0.103 0.004zM560.29 172.167v137.593c0 23.038-18.676 41.715-41.715 41.715s-41.715-18.676-41.715-41.715v0-137.971c-122.395 17.624-219.19 113.502-236.706 234.712h139.965c23.038 0 41.715 18.676 41.715 41.715s-18.676 41.715-41.715 41.715v0h-139.264c19.187 119.053 115.065 212.992 236.005 230.292v-133.605c0-23.038 18.676-41.715 41.715-41.715s41.715 18.676 41.715 41.715v0 133.228c119.485-18.432 214.016-111.67 233.095-229.915h-136.408c-23.038 0-41.715-18.676-41.715-41.715s18.676-41.715 41.715-41.715v0h137.054c-17.462-120.239-112.748-215.579-233.741-234.334z" />
<glyph unicode="&#xe903;" glyph-name="4" d="M950.857-64h-292.571c-40.396 0-73.143 32.747-73.143 73.143v0 292.571c0 40.396 32.747 73.143 73.143 73.143v0h292.571c40.396 0 73.143-32.747 73.143-73.143v0-292.571c0-40.396-32.747-73.143-73.143-73.143v0zM882.249 233.179h-155.429v-155.429h155.429v155.429zM950.857 521.143h-292.571c-40.396 0-73.143 32.747-73.143 73.143v0 292.571c0 40.396 32.747 73.143 73.143 73.143v0h292.571c40.396 0 73.143-32.747 73.143-73.143v0-292.571c0-40.396-32.747-73.143-73.143-73.143v0zM882.249 818.322h-155.429v-155.429h155.429v155.429zM365.714-64h-292.571c-40.396 0-73.143 32.747-73.143 73.143v0 292.571c0 40.396 32.747 73.143 73.143 73.143v0h292.571c40.396 0 73.143-32.747 73.143-73.143v0-292.571c0-40.396-32.747-73.143-73.143-73.143v0zM297.106 233.179h-155.429v-155.429h155.429v155.429zM365.714 521.143h-292.571c-40.396 0-73.143 32.747-73.143 73.143v0 292.571c0 40.396 32.747 73.143 73.143 73.143v0h292.571c40.396 0 73.143-32.747 73.143-73.143v0-292.571c0-40.396-32.747-73.143-73.143-73.143v0zM297.106 818.322h-155.429v-155.429h155.429v155.429z" />
<glyph unicode="&#xe904;" glyph-name="5" horiz-adv-x="1536" d="M1492.096 704.128l-724.096-724.096-724.096 724.096 180.992 180.992 543.104-543.104 543.104 543.104 180.992-180.992z" />
<glyph unicode="&#xe905;" glyph-name="6" d="M1006.927-63.98h-989.854c-9.429 0-17.073 7.644-17.073 17.073s7.644 17.073 17.073 17.073h153.6v972.8c0 9.433 7.641 17.054 17.054 17.054h443.746c9.413 0 17.054-7.621 17.054-17.054v-392.527h238.946c9.413 0 17.054-7.66 17.054-17.073v-563.2h102.4c9.429 0 17.073-7.644 17.073-17.073s-7.644-17.073-17.073-17.073v0zM290.127-29.834h68.273v153.58c0 9.433-7.642 17.082-17.072 17.093h-34.128c-9.432-0.011-17.073-7.66-17.073-17.093v0-153.58zM614.4 925.893h-409.6v-955.727h51.2v153.58c0 0.006 0 0.013 0 0.020 0 28.277 22.923 51.2 51.2 51.2h34.127c28.277 0 51.2-22.923 51.2-51.2 0-0.007 0-0.014 0-0.021v0.001-153.58h34.146v563.2c0 9.413 7.641 17.073 17.054 17.073h170.673v375.454zM870.4 516.293h-409.6v-546.127h409.6v546.127zM529.073 482.166h102.4c9.413 0 17.054-7.641 17.054-17.054v-102.42c0-9.418-7.635-17.054-17.054-17.054v0h-102.4c-0.006 0-0.013 0-0.020 0-9.418 0-17.054 7.635-17.054 17.054v0 102.42c0 9.413 7.641 17.054 17.073 17.054zM546.127 379.746h68.273v68.273h-68.273v-68.273zM529.073 311.493h102.4c9.413 0 17.054-7.641 17.054-17.073v-102.4c0-9.418-7.635-17.054-17.054-17.054v0h-102.4c-0.006 0-0.013 0-0.020 0-9.418 0-17.054 7.635-17.054 17.054v0 102.4c0 9.433 7.641 17.073 17.073 17.073zM546.127 209.093h68.273v68.273h-68.273v-68.273zM529.073 140.839h102.4c9.413 0 17.054-7.66 17.054-17.093v-102.38c0-0.006 0-0.013 0-0.020 0-9.422-7.633-17.062-17.052-17.073h-102.401c-9.432 0.011-17.073 7.66-17.073 17.093v0 102.38c0 9.433 7.641 17.093 17.073 17.093zM546.127 38.42h68.273v68.293h-68.273v-68.293zM699.727 482.166h102.4c9.433 0 17.073-7.641 17.073-17.054v-102.42c0-9.418-7.635-17.054-17.054-17.054-0.007 0-0.014 0-0.021 0h-102.399c-9.418 0-17.054 7.635-17.054 17.054v0 102.42c0 9.413 7.641 17.054 17.054 17.054zM716.8 379.746h68.273v68.273h-68.273v-68.273zM699.727 311.493h102.4c9.433 0 17.073-7.641 17.073-17.073v-102.4c0-9.418-7.635-17.054-17.054-17.054-0.007 0-0.014 0-0.021 0h-102.399c-9.418 0-17.054 7.635-17.054 17.054v0 102.4c0 9.433 7.641 17.073 17.054 17.073zM716.8 209.093h68.273v68.273h-68.273v-68.273zM699.727 140.839h102.4c9.433 0 17.073-7.66 17.073-17.093v-102.38c0-9.433-7.642-17.082-17.072-17.093h-102.401c-9.421 0.011-17.054 7.651-17.054 17.073 0 0.007 0 0.014 0 0.021v-0.001 102.38c0 9.433 7.641 17.093 17.054 17.093zM716.8 38.42h68.273v68.293h-68.273v-68.293zM426.673 601.62v102.4c0 9.433 7.641 17.073 17.054 17.073h102.4c9.433 0 17.073-7.641 17.073-17.073v-102.4c-0.011-9.421-7.651-17.054-17.073-17.054 0 0 0 0 0 0h-102.4c-9.418 0-17.054 7.635-17.054 17.054v0zM460.8 618.693h68.273v68.273h-68.273v-68.273zM546.127 755.22h-102.4c-9.421 0.011-17.054 7.651-17.054 17.073 0 0 0 0 0 0v0 102.4c0 9.433 7.641 17.073 17.054 17.073h102.4c9.433 0 17.073-7.641 17.073-17.073v-102.4c0-9.429-7.644-17.073-17.073-17.073v0zM529.073 857.639h-68.273v-68.273h68.273v68.273zM375.473 243.22h-102.4c-9.429 0-17.073 7.644-17.073 17.073v0 102.4c0 9.413 7.641 17.054 17.073 17.054h102.4c9.413 0 17.054-7.641 17.054-17.054v-102.4c0-9.422-7.633-17.062-17.052-17.073h-0.001zM358.4 345.639h-68.273v-68.273h68.273v68.273zM375.473 413.893h-102.4c-9.429 0-17.073 7.644-17.073 17.073v0 102.4c0 9.413 7.641 17.073 17.073 17.073h102.4c9.413 0 17.054-7.66 17.054-17.073v-102.4c0-9.422-7.633-17.062-17.052-17.073h-0.001zM358.4 516.293h-68.273v-68.273h68.273v68.273zM375.473 584.566h-102.4c-9.422 0-17.062 7.633-17.073 17.052v102.401c0 9.433 7.641 17.073 17.073 17.073h102.4c9.413 0 17.054-7.641 17.054-17.073v-102.4c0-9.418-7.635-17.054-17.054-17.054v0zM358.4 686.966h-68.273v-68.273h68.273v68.273zM375.473 755.22h-102.4c-9.429 0-17.073 7.644-17.073 17.073v102.4c0 9.433 7.641 17.073 17.073 17.073h102.4c9.413 0 17.054-7.641 17.054-17.073v-102.4c0-9.422-7.633-17.062-17.052-17.073h-0.001zM358.4 857.639h-68.273v-68.273h68.273v68.273z" />
<glyph unicode="&#xe906;" glyph-name="7" d="M984.635-3.919h-20.559v-20.539c0-11.362-9.177-20.539-20.539-20.539h-246.548c-0.006 0-0.013 0-0.020 0-11.333 0-20.519 9.187-20.519 20.519 0 0.007 0 0.014 0 0.021v-0.001 20.539h-20.559c-11.343 0-20.539 9.196-20.539 20.539 0 0.007 0 0.014 0 0.021v-0.001 20.539c0.056 45.366 36.812 82.129 82.17 82.196h41.104l0.158 657.447c0 0.026 0 0.057 0 0.087 0 11.318-4.591 21.565-12.012 28.978v0c-7.436 7.396-17.688 11.968-29.007 11.968-22.683 0-41.078-18.359-41.137-41.028v-143.642c0-133.986-86.036-247.946-205.647-290.402v-227.21c24.085-8.661 41.014-31.271 41.098-57.846v-0.010c-0.098-26.837-17.359-49.617-41.375-57.942l-0.432-0.13c0.098-1.221 0.709-2.304 0.709-3.564 0-22.646-18.432-41.078-41.098-41.078-22.673 0.034-41.045 18.405-41.078 41.075v0.003h-246.548c-0.045-22.676-18.421-41.045-41.095-41.078h-0.003c-22.677 0.034-41.053 18.402-41.098 41.074v0.004c0 1.26 0.61 2.343 0.729 3.564-24.448 8.455-41.709 31.235-41.807 58.061v0.012c0 26.762 17.231 49.349 41.078 57.856v418.501c-24.074 8.661-40.995 31.262-41.078 57.826v0.010c0.034 34.028 27.609 61.603 61.634 61.637h22.63c9.938 47.2 51.204 82.133 100.64 82.196h123.281c49.44-0.070 90.702-35 100.529-81.524l0.119-0.672h22.626c34.028-0.034 61.603-27.609 61.637-61.634v-0.003c-0.080-26.581-17.012-49.187-40.669-57.702l-0.429-0.135v-54.705c49.605 33.241 82.373 89.738 82.373 153.817v143.655c0 90.644 73.708 164.352 164.332 164.352 43.914 0 85.209-17.093 116.244-48.167 29.718-29.562 48.109-70.485 48.109-115.704 0-0.183 0-0.366-0.001-0.548v0.028l-0.138-657.428h41.098c45.364-0.067 82.12-36.83 82.176-82.19v-20.544c0-11.343-9.196-20.559-20.539-20.559zM80.62 37.179h369.822c11.077 0.354 19.923 9.418 19.923 20.549s-8.845 20.195-19.89 20.548l-0.032 0.001h-369.822c-10.881-0.602-19.476-9.571-19.476-20.549s8.595-19.947 19.423-20.547l0.053-0.002zM368.266 448.098c21.701 0 42.24 4.431 61.617 11.343v70.833h-328.724v-410.9h328.724v211.653c-18.504-3.944-39.763-6.203-61.549-6.203-0.024 0-0.048 0-0.072 0h0.004c-34.032 0.034-61.612 27.607-61.657 61.633v0.004c0.045 34.030 27.625 61.603 61.653 61.637h0.003zM327.168 694.646h-123.274c-26.585-0.084-49.195-17.013-57.721-40.669l-0.135-0.429h238.986c-8.671 24.078-31.275 41.001-57.844 41.098h-0.012zM450.442 612.45h-369.822c-0.268 0.013-0.583 0.020-0.9 0.020-11.354 0-20.559-9.204-20.559-20.559s9.204-20.559 20.559-20.559c0.316 0 0.631 0.007 0.944 0.021l-0.044-0.002h369.822c10.961 0.495 19.659 9.501 19.659 20.539s-8.699 20.044-19.615 20.537l-0.044 0.002zM804.844 863.98c-22.171 22.309-52.874 36.116-86.802 36.116-0.125 0-0.251 0-0.376-0.001h0.020c-68.040-0.078-123.176-55.214-123.254-123.247v-143.662c0-124.731-101.455-226.186-226.166-226.186-10.881-0.602-19.476-9.571-19.476-20.549s8.595-19.947 19.423-20.547l0.053-0.002c147.358 0 267.264 119.926 267.264 267.284v143.636c0.045 45.37 36.807 82.14 82.171 82.196h0.005c21.957 0 42.594-8.546 58.112-24.084 14.865-14.781 24.064-35.245 24.064-57.858 0-0.096 0-0.193-0.001-0.289v0.015l-0.158-657.428h41.098l0.118 657.428c0 32.926-12.8 63.902-36.096 87.178zM922.998 78.277h-205.47c-22.646 0-41.078-18.432-41.078-41.098h287.626c-0.022 22.682-18.398 41.064-41.075 41.098h-0.003zM203.894 365.903h-41.098c-11.349 0-20.549 9.2-20.549 20.549s9.2 20.549 20.549 20.549v0h41.098c11.349 0 20.549-9.2 20.549-20.549s-9.2-20.549-20.549-20.549v0zM203.894 448.098h-41.098c-11.349 0-20.549 9.2-20.549 20.549s9.2 20.549 20.549 20.549v0h41.098c11.349 0 20.549-9.2 20.549-20.549s-9.2-20.549-20.549-20.549v0z" />
<glyph unicode="&#xe907;" glyph-name="8" d="M1004.274 42.129h-116.562l29-79.679c0.742-1.989 1.172-4.287 1.172-6.685 0-10.843-8.783-19.635-19.622-19.649h-62.832c-8.269 0-15.63 5.159-18.451 12.906l-33.889 93.107h-523.631l-33.889-93.107c-2.826-7.594-10.014-12.906-18.442-12.906-0.003 0-0.006 0-0.009 0h-62.831c-0.001 0-0.001 0-0.002 0-10.841 0-19.63 8.789-19.63 19.63 0 2.406 0.433 4.71 1.225 6.84l-0.044-0.136 29 79.679h-116.581c-10.841 0-19.63 8.789-19.63 19.63v0 592.954c0 10.839 8.791 19.63 19.63 19.63h390.762c3.086 14.215 8.998 26.709 17.151 37.402l-0.168-0.229-138.53 138.53c-4.826-1.824-10.404-2.879-16.229-2.879-26.030 0-47.137 21.080-47.181 47.1v0.004c0.033 26.012 21.111 47.090 47.12 47.123h0.003c26.020-0.050 47.093-21.155 47.093-47.181 0-5.912-1.087-11.57-3.073-16.785l0.108 0.324 140.443-140.443c13.095 7.392 28.752 11.747 45.426 11.747 0.033 0 0.066 0 0.098 0h-0.005c16.423 0 31.879-4.231 45.346-11.65l140.346 140.346c-1.877 4.891-2.965 10.549-2.965 16.461 0 26.027 21.074 47.131 47.089 47.181h0.005c26.012-0.033 47.090-21.111 47.123-47.12v-0.003c-0.040-26.027-21.148-47.111-47.181-47.111-5.832 0-11.418 1.058-16.574 2.993l0.325-0.107-138.375-138.375c8.231-10.858 14.181-23.533 17.118-37.328h390.743c10.839 0 19.63-8.791 19.649-19.63v-592.954c0-10.839-8.791-19.63-19.649-19.63zM291.183 902.115c-0.119 0.006-0.259 0.010-0.399 0.010-4.343 0-7.864-3.521-7.864-7.864s3.521-7.864 7.864-7.864c0.134 0 0.266 0.003 0.398 0.010l-0.019-0.001c4.176 0.208 7.484 3.645 7.484 7.854 0 4.203-3.297 7.635-7.445 7.853l-0.019 0.001zM751.094 886.427c4.338 0 7.854 3.516 7.854 7.854s-3.516 7.854-7.854 7.854v0c-4.338 0-7.854-3.516-7.854-7.854s3.516-7.854 7.854-7.854v0zM849.166-24.644h21.040l-24.286 66.773h-21.040l24.286-66.773zM193.362-24.644l24.306 66.773h-21.040l-24.306-66.773h21.040zM521.274 709.777c-23.345-0.018-43.291-14.55-51.303-35.059l-0.129-0.375h102.844c-8.139 20.878-28.076 35.408-51.409 35.434h-0.003zM984.644 635.102h-926.759v-553.694h926.759v553.694zM365.529 390.695l-64.705 64.705c-3.553 3.553-5.75 8.461-5.75 13.882 0 10.842 8.79 19.632 19.632 19.632 5.421 0 10.329-2.197 13.882-5.75v0l64.705-64.705c3.553-3.553 5.75-8.461 5.75-13.882 0-10.842-8.79-19.632-19.632-19.632-5.421 0-10.329 2.197-13.882 5.75v0zM116.794 586.008h703.005c10.839 0 19.63-8.791 19.63-19.63v-416.266c0-10.839-8.791-19.63-19.63-19.63h-250.107c-10.847 0-19.64 8.793-19.64 19.64s8.793 19.64 19.64 19.64v0h230.477v376.967h-663.745v-376.967h300.476c10.847 0 19.64-8.793 19.64-19.64s-8.793-19.64-19.64-19.64v0h-320.106c-10.841 0-19.63 8.789-19.63 19.63v0 416.266c0 10.839 8.791 19.63 19.63 19.63zM500.987 169.762h0.638c0.184 0.006 0.399 0.010 0.616 0.010 10.852 0 19.649-8.797 19.649-19.649s-8.797-19.649-19.649-19.649c-0.217 0-0.432 0.004-0.647 0.010l0.031-0.001h-0.638c-10.847 0-19.64 8.793-19.64 19.64s8.793 19.64 19.64 19.64v0zM438.832 372.92c3.552-3.549 5.749-8.454 5.749-13.872 0-10.831-8.78-19.611-19.611-19.611-0.018 0-0.035 0-0.053 0h0.003c-5.043 0-10.085 1.932-13.93 5.777l-0.174 0.193c-3.194 3.482-5.151 8.144-5.151 13.263 0 10.852 8.797 19.649 19.649 19.649 5.157 0 9.85-1.987 13.356-5.237l-0.013 0.012 0.174-0.174zM460.452 489.443l231.173-231.154c3.293-3.505 5.317-8.237 5.317-13.442 0-10.852-8.797-19.649-19.649-19.649-5.2 0-9.928 2.020-13.442 5.317l0.011-0.010-231.173 231.173c-3.553 3.553-5.75 8.461-5.75 13.882 0 10.842 8.79 19.632 19.632 19.632 5.421 0 10.329-2.197 13.882-5.75v0zM455.545 300.679c-3.293 3.505-5.317 8.237-5.317 13.442 0 10.852 8.797 19.649 19.649 19.649 5.2 0 9.928-2.020 13.442-5.317l-0.011 0.010 65.439-65.459c3.553-3.553 5.75-8.461 5.75-13.882 0-10.842-8.79-19.632-19.632-19.632-5.421 0-10.329 2.197-13.882 5.75l-65.439 65.439zM912.036 527.466c26.012-0.033 47.090-21.111 47.123-47.12v-0.003c-0.033-26.012-21.111-47.090-47.12-47.123h-0.003c-26.012 0.033-47.090 21.111-47.123 47.12v0.003c0.033 26.012 21.111 47.090 47.12 47.123h0.003zM912.036 472.499c4.338 0 7.854 3.516 7.854 7.854s-3.516 7.854-7.854 7.854v0c-4.338 0-7.854-3.516-7.854-7.854s3.516-7.854 7.854-7.854v0zM912.036 405.359c26.010-0.022 47.090-21.096 47.123-47.101v-0.003c-0.022-26.021-21.104-47.11-47.12-47.143h-0.003c-26.019 0.033-47.101 21.122-47.123 47.141v0.002c0.033 26.008 21.113 47.082 47.121 47.104h0.002zM912.036 350.392c0.113-0.006 0.246-0.009 0.38-0.009 4.343 0 7.864 3.521 7.864 7.864s-3.521 7.864-7.864 7.864c-0.14 0-0.28-0.004-0.419-0.011l0.019 0.001c-4.168-0.218-7.464-3.651-7.464-7.853 0-4.209 3.307-7.646 7.465-7.854l0.019-0.001zM912.036 283.271c26.012-0.033 47.090-21.111 47.123-47.12v-0.003c-0.022-26.017-21.107-47.101-47.121-47.123h-0.002c-26.017 0.022-47.101 21.107-47.123 47.121v0.002c0.033 26.012 21.111 47.090 47.12 47.123h0.003zM912.036 228.284c4.172 0.213 7.474 3.648 7.474 7.854s-3.302 7.641-7.455 7.853l-0.019 0.001c-4.338 0-7.854-3.516-7.854-7.854s3.516-7.854 7.854-7.854v0z" />
<glyph unicode="&#xe908;" glyph-name="9" d="M513.044-64.143c-282.051 0-511.119 229.089-511.119 511.119 0 282.051 229.069 511.119 511.119 511.119 282.030 0 511.099-229.069 511.099-511.119 0-282.030-229.069-511.119-511.099-511.119zM513.044 913.756c-257.413 0-466.78-209.367-466.78-466.78s209.367-466.78 466.78-466.78c257.393 0 466.76 209.367 466.76 466.78s-209.367 466.78-466.76 466.78zM779.059 336.138h-155.177v-155.177c0-12.308-9.851-22.18-22.18-22.18h-177.336c-0.024 0-0.053 0-0.082 0-12.204 0-22.098 9.894-22.098 22.098 0 0.029 0 0.058 0 0.087v-0.004 155.177h-155.177c-0.024 0-0.053 0-0.082 0-12.193 0-22.077 9.884-22.077 22.077 0 0.029 0 0.058 0 0.087v-0.004 177.357c0 12.308 9.851 22.159 22.159 22.159h155.177v155.197c0 12.308 9.851 22.159 22.18 22.159h177.336c12.329 0 22.18-9.851 22.18-22.159v-155.197h155.177c11.080 0 20.931-9.851 22.159-22.159v-177.357c0-12.308-9.851-22.159-22.159-22.159zM758.129 513.495h-155.177c-0.030 0-0.067 0-0.103 0-12.193 0-22.077 9.884-22.077 22.077 0 0.029 0 0.058 0 0.087v-0.004 155.177h-134.246v-155.177c0-12.308-9.851-22.159-22.159-22.159h-155.177v-133.018h155.177c12.308 0 22.159-9.851 22.159-22.18v-155.177h133.018v155.177c0 12.329 9.851 22.18 22.159 22.18h156.426v133.018z" />
<glyph unicode="&#xe909;" glyph-name="10" horiz-adv-x="1439" d="M535.718 397.686c-15.529 0-28.118 12.589-28.118 28.118s12.589 28.118 28.118 28.118v0h63.377c15.529 0 28.118-12.589 28.118-28.118s-12.589-28.118-28.118-28.118v0h-63.377zM1320.822 86.749c-13.314-73.073-76.415-127.764-152.313-127.889h-0.013c-75.45 0.107-138.248 54.141-151.923 125.619l-0.154 0.969h-147.069c-15.529 0-28.118 12.589-28.118 28.118s12.589 28.118 28.118 28.118v0h147.013c13.284 72.289 78.599 126.644 152.133 126.644 72.732 0 137.603-53.11 151.773-124.596 36.214 8.619 62.741 40.67 62.796 78.925v308.147c0 9.797-1.799 19.401-5.203 28.451h-168.074c-32.101 0.032-58.115 26.046-58.147 58.144v150.005c0 32.076 26.070 58.202 58.147 58.202h7.971c-24.116 33.558-62.984 55.197-106.914 55.351h-552.155c-0.089 0-0.194 0-0.299 0-45.951 0-86.354-23.756-109.596-59.657l-0.309-0.51-3.542-5.48h148.397c32.076 0 58.174-26.098 58.174-58.174v-139.873c0-32.104-26.098-58.202-58.174-58.202h-321.979l-189.523-94.762c-13.809-6.972-23.536-20.27-25.413-35.98l-0.021-0.22h51.006c44.916-0.063 81.307-36.474 81.339-81.391v-26.184c-0.031-44.921-36.423-81.331-81.333-81.394h-51.344v-13.727c0-12.869 5.397-25.323 14.834-34.124l39.798-37.085c8.635-8.054 19.926-12.509 31.772-12.509h43.257c13.312 72.289 78.571 126.644 152.133 126.644 73.534 0 138.821-54.272 152.161-126.644h125.066c15.529 0 28.118-12.589 28.118-28.118s-12.589-28.118-28.118-28.118v0h-125.149c-13.819-72.453-76.624-126.493-152.067-126.589h-0.010c-75.454 0.096-138.259 54.136-151.924 125.62l-0.154 0.969h-43.312c-0.039 0-0.086 0-0.133 0-27.077 0-51.702 10.498-70.027 27.646l0.058-0.053-39.798 37.113c-20.132 18.852-32.691 45.58-32.74 75.241v197.198c0 39.216 21.781 74.475 56.846 92.022l188.554 94.263 155.925 242.356c33.68 52.023 91.426 85.961 157.099 85.961 0.152 0 0.303 0 0.455-0.001h552.107c67.518-0.207 126.648-35.921 159.721-89.441l0.465-0.809 148.535-245.206c12.393-20.225 19.733-44.71 19.733-70.909 0-0.008 0-0.017 0-0.025v0.001-308.141c-0.094-69.127-51.218-126.285-117.716-135.829l-0.736-0.087zM1168.495 212.093c-54.359-0.094-98.395-44.16-98.442-98.521v-0.115c0.11-54.307 44.129-98.297 98.436-98.359h0.006c54.352 0.079 98.391 44.118 98.47 98.462v0.008c-0.047 54.376-44.099 98.447-98.462 98.525h-0.008zM337.865 15.097c54.352 0.079 98.391 44.118 98.47 98.462v0.008c-0.047 54.376-44.099 98.447-98.462 98.525h-0.008c-12.925 0-25.849-2.574-37.777-7.555-35.769-15.502-60.397-50.379-60.693-91.043v-0.038c0.126-54.311 44.151-98.297 98.464-98.359h0.006zM56.071 295.369h51.338c13.867 0.016 25.102 11.261 25.102 25.129v0 26.209c0 13.869-11.235 25.114-25.1 25.13h-51.34v-76.468zM316.222 615.327h277.117c1.070 0 1.937 0.867 1.937 1.937v0 139.873c0 1.070-0.867 1.937-1.937 1.937v0h-184.597l-92.52-143.747zM1252.241 769.342h-42.454c-1.070 0-1.937-0.867-1.937-1.937v0-150.002c0-1.052 0.858-1.937 1.937-1.937h135.666l-93.212 153.877zM725.186 617.264v139.873c0 32.076 26.098 58.174 58.174 58.174h237.9c32.076 0 58.174-26.098 58.174-58.174v-139.873c0-32.104-26.098-58.202-58.174-58.202h-237.9c-32.119 0.047-58.143 26.080-58.174 58.199v0.003zM781.423 617.264c0-0.008 0-0.018 0-0.028 0-1.070 0.867-1.937 1.937-1.937 0 0 0 0 0 0h237.9c1.052 0 1.937 0.886 1.937 1.965v139.873c0 1.070-0.867 1.937-1.937 1.937v0h-237.9c-1.070 0-1.937-0.867-1.937-1.937v0-139.873zM742.179 141.63c12.011 0.886 23.441-6.199 28.063-17.27 4.982-12.011 0.858-26.32-9.797-33.764-20.591-14.391-49.124 4.594-43.589 29.17 2.685 11.956 13.146 20.95 25.323 21.864z" />
<glyph unicode="&#xe90a;" glyph-name="11" horiz-adv-x="1494" d="M1489.699 573.288c-13.506 55.075-60.029 99.909-115.795 111.561-9.646 2.103-20.727 3.307-32.088 3.307-0.725 0-1.45-0.005-2.173-0.015l0.11 0.001c-106.607 162.013-301.36 244.902-580.94 244.902-280.521 0-475.551-83.082-581.826-245.511-36.338-0.028-71.791-11.984-99.715-35.674-33.123-28.196-53.995-69.925-53.995-116.53 0-0.004 0-0.009 0-0.013v0.001c0-47.824 23.109-92.99 61.302-121.745v-214.763c0.126-67.607 54.953-122.366 122.574-122.382h0.001v-30.582c1.261-49.812 41.94-89.71 91.939-89.71s90.678 39.899 91.936 89.594l0.002 0.117v30.582h735.536v-30.582c1.261-49.812 41.94-89.71 91.939-89.71s90.678 39.899 91.936 89.594l0.002 0.117v30.582c0 0 0 0 0 0 67.634 0 122.477 54.765 122.603 122.37v214.748c48.986 36.698 71.597 98.719 56.652 159.744zM758.756 871.853c246.009 0 418.788-67.335 516.428-198.628-11.702-5.53-21.784-11.901-30.982-19.323l0.29 0.227c-34.708-28.171-56.708-70.831-56.708-118.63 0-0.064 0-0.128 0-0.192v0.010-91.773h-367.727c-23.635 0-45.001-9.188-61.302-23.856-16.107 14.733-37.626 23.782-61.259 23.856h-367.769v85.241c0 62.824-36.006 118.48-88.036 144.080 97.335 131.487 270.336 198.988 517.065 198.988zM1249.086 351.772c0-16.91-13.727-30.609-30.637-30.609h-398.391c-0.476-0.026-1.034-0.042-1.594-0.042-16.92 0-30.637 13.717-30.637 30.637s13.717 30.637 30.637 30.637c0.561 0 1.118-0.015 1.672-0.045l-0.077 0.003h398.391c16.91 0 30.637-13.699 30.637-30.582zM299.091 382.353h398.391c0.274 0.009 0.597 0.014 0.92 0.014 16.905 0 30.609-13.704 30.609-30.609s-13.704-30.609-30.609-30.609c-0.324 0-0.646 0.005-0.967 0.015l0.047-0.001h-398.391c-0.008 0-0.018 0-0.028 0-16.911 0-30.621 13.701-30.637 30.608v0.002c0 16.882 13.755 30.582 30.665 30.582zM329.728 45.845c0-16.928-13.723-30.651-30.651-30.651s-30.651 13.723-30.651 30.651v0 30.582h61.302v-30.582zM1249.086 45.845c0-16.928-13.723-30.651-30.651-30.651s-30.651 13.723-30.651 30.651v0 30.582h61.302v-30.582zM1386.911 456.33c-9.179-5.358-15.249-15.16-15.249-26.381 0-0.017 0-0.035 0-0.052v0.003-231.092c-0.079-33.792-27.475-61.16-61.271-61.191h-1103.238c-33.811 0.016-61.223 27.389-61.302 61.183v231.1c0 10.877-5.812 20.95-15.222 26.43-28.866 16.799-46.052 46.329-46.052 78.986 0 26.956 11.818 52.445 32.408 69.936 15.904 13.623 36.726 21.914 59.484 21.914 5.541 0 10.968-0.492 16.238-1.433l-0.555 0.082c43.478-7.057 76.274-48.792 76.274-97.031v-90.859c-35.591-12.675-61.274-46.329-61.274-86.154 0.095-50.711 41.217-91.785 91.937-91.8h398.393c23.607 0 44.973 9.216 61.274 23.884 16.301-14.668 37.667-23.884 61.302-23.884h398.391c50.715 0.031 91.828 41.096 91.939 91.79v0.011c0 39.825-25.711 73.479-61.302 86.154v97.391c0 27.786 12.399 53.746 34.013 71.293 21.947 17.795 49.789 24.299 78.156 18.377 33.155-6.947 60.803-33.543 68.802-66.2 10.074-41.154-6.864-81.339-43.146-102.455z" />
<glyph unicode="&#xe90b;" glyph-name="12" d="M1002.66-63.98h-981.32c-11.786 0-21.34 9.554-21.34 21.34v0 21.34h42.66v575.98c0 11.796 9.564 21.34 21.34 21.34h341.34c11.776 0 21.32-9.544 21.32-21.34v-575.98h170.68v832c0 11.756 9.544 21.34 21.32 21.34h341.34c11.776 0 21.34-9.585 21.34-21.34v-832h42.66v-21.34c0-11.776-9.544-21.34-21.34-21.34zM170.66-21.299h128v42.66h-128v-42.66zM384 533.361h-298.66v-554.66h42.66v64c0 11.776 9.544 21.34 21.34 21.34h170.66c11.776 0 21.34-9.564 21.34-21.34v-64h42.66v554.66zM725.34-21.299h64v64h-64v-64zM938.66 789.381h-298.66v-64.020h213.34v-42.66h-213.34v-64.020h213.34v-42.66h-213.34v-64h213.34v-42.66h-213.34v-63.98h213.34v-42.701h-213.34v-64h213.34v-42.66h-213.34v-63.98h213.34v-42.66h-213.34v-170.68h42.66v85.34c0 11.776 9.564 21.34 21.34 21.34h106.66c11.796 0 21.34-9.564 21.34-21.34v-85.34h106.66v810.68zM298.66 490.701h42.68v-383.98h-42.68v383.98zM213.34 490.701h42.66v-383.98h-42.66v383.98zM128 490.701h42.66v-383.98h-42.66v383.98zM490.66 853.361h42.68v-63.98h-42.68v63.98zM490.66 725.361h42.68v-64.020h-42.68v64.020zM490.66 597.361h42.68v-64h-42.68v64zM490.66 469.361h42.68v-63.98h-42.68v63.98zM533.34 149.381h-42.68v63.98h42.68v-63.98zM490.66 341.361h42.68v-64h-42.68v64zM448 661.34h-42.66v64.020h42.66v-64.020zM405.34 853.361h42.66v-63.98h-42.66v63.98zM362.66 661.34h-42.66v64.020h42.66v-64.020zM320 853.361h42.66v-63.98h-42.66v63.98zM789.34 917.361h-533.34v-298.68h-42.66v320c0 11.817 9.544 21.361 21.32 21.361h576c11.796 0 21.34-9.544 21.34-21.361v-63.98h-42.66v42.66z" />
<glyph unicode="&#xe90c;" glyph-name="13" horiz-adv-x="1210" d="M1127.75 440.064l-416.535-92.835v-84.829c0-15.942-10.612-26.531-26.531-26.531h-159.185c-15.919 0-26.531 10.589-26.531 26.531v84.829l-416.535 92.835c-35.11 8.644-60.781 39.749-61.021 76.89v169.732c0 45.103 34.49 79.569 79.593 79.569h1008.175c45.103 0 79.593-34.467 79.593-79.569v-169.705c-0.24-37.168-25.911-68.273-60.474-76.802l-0.547-0.114zM552.029 288.908h106.124v106.077h-106.124v-106.077zM1135.709 686.685c0 15.942-10.612 26.531-26.531 26.531h-1008.175c-15.919 0-26.531-10.589-26.531-26.531v-169.705c0-13.265 7.959-23.878 21.225-26.531l403.27-90.159v21.201c0 15.919 10.612 26.531 26.531 26.531h159.185c15.919 0 26.531-10.612 26.531-26.531v-21.201l403.27 90.159c13.265 2.653 21.225 13.265 21.225 26.531v169.705zM790.807 819.293c-15.919 0-26.531 10.612-26.531 26.531v26.531c0 15.895-10.612 26.508-26.531 26.508h-265.309c-15.919 0-26.531-10.612-26.531-26.508v-26.531c0-15.919-10.612-26.531-26.531-26.531s-26.531 10.612-26.531 26.531v26.531c0 45.079 34.49 79.546 79.593 79.546h265.309c45.103 0 79.593-34.467 79.593-79.546v-26.531c0-15.919-10.612-26.531-26.531-26.531zM74.473 394.985c15.919 0 26.531-10.612 26.531-26.508v-344.785c0-15.919 10.612-26.508 26.531-26.508h955.113c15.919 0 26.531 10.589 26.531 26.508v344.785c0 15.895 10.612 26.508 26.531 26.508s26.531-10.612 26.531-26.508v-344.785c0-45.079-34.49-79.546-79.593-79.546h-955.113c-45.103 0-79.593 34.467-79.593 79.546v344.785c0 15.895 10.612 26.508 26.531 26.508z" />
<glyph unicode="&#xe90d;" glyph-name="14" horiz-adv-x="985" d="M978.577 487.588c0-1.14 0-2.318-0.077-3.516-0.097-4.366-0.251-11.96-0.251-13.351-4.932-134.219-69.237-252.478-167.278-329.909l-0.929-0.707v-90.769c0-66.386-161.096-101.125-320.242-101.125-159.126 0-320.222 34.739-320.222 101.125v99.695c-93.153 77.399-155.337 189.282-166.856 315.804l-0.133 1.81c-0.483 5.448-1.043 13.196-1.333 17.157-0.077 0.618-0.097 1.237-0.135 1.855l-0.058 0.734h0.019c-0.019 0.386-0.058 0.792-0.058 1.198 0 18.277 11.844 37.366 153.31 52.514 94.512 9.525 204.255 14.958 315.266 14.958 7.103 0 14.201-0.022 21.293-0.067l-1.093 0.005c65.536 0 129.082-1.526 189.459-4.328 6.453 86.827 23.108 210.075 66.193 274.702 41.257 57.699 97.047 102.562 162.089 129.671l2.485 0.918c5.261 2.346 11.401 3.711 17.859 3.711 24.756 0 44.824-20.068 44.824-44.824 0-17.165-9.649-32.077-23.819-39.608l-0.242-0.118c-29.213-15.457-99.695-57.73-122.957-115.925-18.954-47.374-26.856-144.268-30.14-216.257 182.968-16.249 183.026-40.632 183.026-55.354zM203.274 49.336c0-22.856 101.144-67.41 286.527-67.41 185.402 0 286.527 44.554 286.527 67.41v66.29c-79.504-52.138-176.923-83.161-281.588-83.161-1.737 0-3.471 0.009-5.204 0.026l0.265-0.002c-0.054 0-0.117 0-0.181 0-107.27 0-206.615 33.934-287.885 91.652l1.539-1.037v-73.767zM489.8 521.284c-236.892 0-395.979-17.93-443.817-33.695 47.838-15.785 206.925-33.715 443.817-33.715 62.889 0 125.025 1.526 185.421 4.251 0.254 21.527 0.946 42.079 2.072 62.515l-0.16-3.626c-59.701 2.802-122.513 4.27-187.334 4.27zM932.883 904.936c3.724 1.849 6.238 5.625 6.238 9.989 0 6.139-4.977 11.116-11.116 11.116-1.776 0-3.454-0.416-4.943-1.157l0.065 0.029c-61.345-25.365-112.061-65.985-148.944-117.228l-0.695-1.015c-41.366-62.039-56.223-190.812-61.575-274.432l0.019-0.019-0.019-0.039c-1.446-20.585-2.506-45.828-2.921-71.227l-0.016-1.226c17.524 1.005 34.391 2.106 50.543 3.342 0.386 44.090 3.864 231.134 34.874 308.649 26.431 66.077 98.111 111.809 138.491 133.217zM794.238 509.208c-0.58-18.567-0.831-33.676-0.966-43.414 50.779 2.931 98.317 10.706 144.040 22.924l-4.969-1.13c-40.505 11.060-87.718 18.776-136.257 21.536l-1.847 0.084zM778.221 430.669c-26.238-2.222-54.794-4.077-84.818-5.603-66-3.246-134.492-4.907-203.602-4.907-6.132-0.041-13.385-0.064-20.643-0.064-110.857 0-220.447 5.426-328.518 16.028l13.694-1.087c-43.062 3.441-82.798 10.653-121.053 21.404l4.414-1.060c25.542-219.387 221.242-389.178 452.106-389.178 1.677-0.021 3.657-0.033 5.64-0.033 107.479 0 206.705 35.338 286.693 95.028l-1.265-0.903c0.977 0.958 2.066 1.807 3.244 2.525l0.079 0.045c90.021 68.855 150.040 173.013 159.27 291.428l0.088 1.398c-54.098-14.046-109.51-22.412-165.328-25.020zM349.493 123.237c-84.767 29.605-155.163 82.486-205.595 150.973l-0.828 1.178c-2.213 2.826-3.548 6.432-3.548 10.349 0 9.315 7.552 16.867 16.867 16.867 5.819 0 10.951-2.947 13.982-7.43l0.038-0.060c47.195-64.104 111.995-112.762 187.265-139.157l2.755-0.841c6.679-2.341 11.384-8.591 11.384-15.94 0-9.307-7.545-16.851-16.851-16.851-1.958 0-3.838 0.334-5.586 0.948l0.118-0.036zM124.658 337.369c-2.026-0.93-4.395-1.472-6.892-1.472-6.811 0-12.679 4.037-15.342 9.849l-0.043 0.105c-4.165 8.866-8.813 20.476-12.908 32.344l-0.829 2.762c-0.557 1.602-0.879 3.449-0.879 5.371 0 9.305 7.543 16.848 16.848 16.848 7.383 0 13.656-4.749 15.933-11.358l0.035-0.118c3.652-10.781 7.864-21.581 12.558-32.053 0.938-2.031 1.485-4.407 1.485-6.911 0-6.809-4.044-12.673-9.861-15.323l-0.105-0.043zM598.963 748.824c0-17.717 7.129-34.681 19.765-47.085 3.051-3.051 4.938-7.266 4.938-11.921 0-9.311-7.548-16.859-16.859-16.859-4.655 0-8.87 1.887-11.921 4.938v0c-18.291 18.089-29.623 43.183-29.638 70.924v0.003c0.021 27.736 11.351 52.822 29.629 70.898l0.009 0.009c25.117 25.098 10.066 67.236-16.848 94.15-2.753 2.992-4.441 7.002-4.441 11.406 0 9.315 7.552 16.867 16.867 16.867 4.409 0 8.423-1.692 11.428-4.461l-0.012 0.011c38.448-38.468 57.421-101.241 16.848-141.814-12.196-11.976-19.758-28.637-19.765-47.064v-0.001zM413.561 664.547c0-17.717 7.129-34.681 19.765-47.065 2.759-2.993 4.45-7.007 4.45-11.416 0-9.315-7.552-16.867-16.867-16.867-4.404 0-8.414 1.688-11.418 4.452l0.012-0.011c-18.296 18.081-29.634 43.168-29.657 70.903v0.005c0.024 27.739 11.362 52.826 29.648 70.898l0.010 0.009c25.098 25.098 10.047 67.256-16.867 94.15-2.832 3.010-4.572 7.075-4.572 11.547 0 9.315 7.552 16.867 16.867 16.867 4.472 0 8.537-1.74 11.555-4.58l-0.009 0.008c38.448-38.468 57.441-101.241 16.848-141.834-12.2-11.974-19.762-28.636-19.765-47.065v0zM236.988 765.672c0-17.698 7.129-34.681 19.765-47.085 3.047-3.049 4.931-7.26 4.931-11.911 0-9.307-7.545-16.852-16.852-16.852-4.656 0-8.871 1.888-11.921 4.941v0c-18.29 18.083-29.622 43.17-29.638 70.904v0.003c0.016 27.737 11.348 52.824 29.629 70.898l0.009 0.009c25.117 25.117 10.066 67.236-16.848 94.131-2.712 2.985-4.373 6.968-4.373 11.338 0 9.326 7.56 16.886 16.886 16.886 4.366 0 8.345-1.657 11.342-4.376l-0.014 0.013c38.448-38.468 57.421-101.241 16.848-141.834-12.202-11.97-19.765-28.631-19.765-47.059 0-0.002 0-0.005 0-0.007v0z" />
<glyph unicode="&#xe90e;" glyph-name="15" horiz-adv-x="1044" d="M1020.047 567.828c-3.696-4.878-9.49-7.999-16.014-8.008h-40.183v-603.791c0-11.051-8.958-20.009-20.009-20.009v0h-703.078c-11.042 0.012-19.988 8.966-19.988 20.009v0 262.881c-14.147-7.379-30.604-12.71-48.005-15.069l-0.778-0.086v-247.726c0.007-0.191 0.010-0.415 0.010-0.64 0-11.051-8.958-20.009-20.009-20.009s-20.009 8.958-20.009 20.009c0 0.225 0.004 0.449 0.011 0.673l-0.001-0.033v247.726c-74.383 9.81-131.994 73.605-131.994 150.63 0 83.804 68.178 152.003 152.003 152.003 24.74 0 48.108-6.001 68.772-16.527v69.96h-40.182c-0.005 0-0.011 0-0.017 0-11.039 0-19.988 8.949-19.988 19.988 0 2.015 0.298 3.96 0.853 5.794l-0.037-0.142 106.394 360.223c2.527 8.362 10.158 14.347 19.189 14.356h610.653c8.868 0 16.671-5.857 19.19-14.356l106.394-360.223c0.517-1.692 0.815-3.637 0.815-5.651 0-4.518-1.499-8.686-4.026-12.033l0.037 0.051zM306.586 515.174h120.545c11.039 0 19.988-8.95 19.988-19.968v-120.545c0-11.059-8.95-19.988-19.988-19.988h-120.545c-0.928 0.011-1.829 0.077-2.714 0.197l0.113-0.012v-0.471c0-2.519-0.061-5.038-0.184-7.557-0.082-1.782-0.246-3.584-0.389-5.386-0.061-0.635-0.082-1.311-0.164-1.946-0.294-3.057-0.605-5.513-0.979-7.947l0.099 0.779v-0.041c-0.614-4.157-1.413-8.233-2.335-12.268h623.821v239.8h-184.525c-0.002 0-0.003 0-0.005 0-6.51 0-12.295 3.106-15.954 7.917l-0.036 0.049-129.679 172.503-124.129-172.175c-3.678-5.049-9.57-8.294-16.22-8.294h-192.533v-99.287c8.060-8.258 15.204-17.474 21.227-27.443l0.379-0.676 1.864-3.215c0.655-1.188 1.331-2.355 1.966-3.584 0.176-0.324 0.305-0.545 0.439-0.763l-0.049 0.087v70.267c0 11.018 8.95 19.968 19.988 19.968zM326.595 475.177v-80.527h80.527v80.527h-80.527zM668.733-23.962v155.832c-0.058 35.075-23.683 64.617-55.883 73.64l-0.539 0.129v-229.601h56.422zM515.891-23.962h56.422v229.601c-32.74-9.152-56.365-38.694-56.422-73.762v-155.839zM260.772-23.962h215.122v155.832c0.058 64.271 52.139 116.359 116.402 116.429h0.007c64.274-0.070 116.359-52.155 116.429-116.422v-155.839h215.122v303.985l-639.611-0.41-1.864-3.256c-1.834-3.045-3.214-5.196-4.634-7.318l0.456 0.724-0.635-0.922c-5.265-7.69-10.785-14.42-16.829-20.639l0.035 0.036v-272.2zM152.003 466.371c-61.828-0.058-111.935-50.158-112.005-111.978v-0.007c0.081-54.747 39.378-100.292 91.3-110.053l0.696-0.109v141.373c-0.007 0.191-0.010 0.415-0.010 0.64 0 11.051 8.958 20.009 20.009 20.009s20.009-8.958 20.009-20.009c0-0.225-0.004-0.449-0.011-0.673l0.001 0.033v-50.606l19.538 19.517c3.595 3.48 8.502 5.625 13.909 5.625 11.051 0 20.009-8.958 20.009-20.009 0-5.412-2.149-10.323-5.64-13.924l-47.816-47.795v-34.181c28.593 5.336 52.848 20.906 69.326 42.686l0.204 0.281 0.287 0.348c0.86 1.167 1.679 2.355 2.499 3.523l0.922 1.352c0.635 0.942 1.229 1.905 1.823 2.867l1.393 2.273 1.249 2.15 1.761 3.297c0.246 0.471 0.492 0.922 0.717 1.413 0.696 1.372 1.372 2.806 2.007 4.219l0.307 0.676c5.194 11.47 8.554 24.805 9.326 38.829l0.013 0.287 0.020 0.082c0.099 1.756 0.155 3.81 0.155 5.878s-0.056 4.122-0.167 6.162l0.012-0.284-0.020 0.082c-0.788 14.312-4.148 27.646-9.623 39.823l0.284-0.707-0.307 0.676c-1.608 3.631-3.107 6.555-4.741 9.391l0.256-0.482c-0.597 1.092-1.011 1.802-1.437 2.504l0.187-0.333-1.393 2.273c-0.594 0.963-1.188 1.925-1.823 2.847l-0.922 1.372c-1.073 1.576-1.895 2.724-2.735 3.856l0.236-0.333-0.287 0.348c-20.622 27.316-53.030 44.788-89.518 44.79v0zM207.36 599.818h235.704l113.746 157.757h-302.858l-46.592-157.757zM882.708 920.023h-580.792l-36.147-122.429h502.436c11.051 0 20.009-8.958 20.009-20.009s-8.958-20.009-20.009-20.009h-137.503l118.6-157.757h227.963l-94.556 320.205zM815.739 785.244c1.089 2.514 2.544 4.665 4.326 6.497l-0.005-0.005c3.619 3.594 8.606 5.815 14.111 5.815 11.040 0 19.993-8.931 20.029-19.963v-0.003c-0.058-11.020-8.97-19.94-19.982-20.009h-0.007c-0.052 0-0.112-0.001-0.173-0.001-5.475 0-10.425 2.25-13.975 5.875l-0.003 0.003c-3.596 3.644-5.817 8.653-5.817 14.18 0 1.359 0.134 2.687 0.39 3.971l-0.021-0.129c0.279 1.433 0.668 2.696 1.174 3.897l-0.048-0.128zM306.586 248.3h120.525c11.059 0 20.009-8.97 20.009-20.029v-120.504c0-11.059-8.95-20.009-20.009-20.009h-120.525c-11.039 0-19.988 8.949-19.988 19.988 0 0.007 0 0.014 0 0.022v-0.001 120.504c0 11.059 8.95 20.029 19.988 20.029zM326.595 127.754h80.527v80.548h-80.527v-80.548zM757.494 248.3h120.545c11.039 0 19.988-8.97 19.988-20.029v-120.504c0-11.059-8.95-20.009-19.988-20.009h-120.545c-11.039 0-19.988 8.949-19.988 19.988 0 0.007 0 0.014 0 0.022v-0.001 120.504c0 11.059 8.95 20.029 19.988 20.029zM777.503 127.754h80.527v80.548h-80.527v-80.548zM532.050 515.174h120.525c11.039 0 20.009-8.95 20.009-19.968v-120.545c0-11.059-8.97-19.988-20.009-19.988h-120.525c-0.006 0-0.013 0-0.020 0-11.039 0-19.988 8.949-19.988 19.988v0 120.545c0 11.018 8.95 19.968 20.009 19.968zM552.038 394.65h80.527v80.527h-80.527v-80.527zM757.494 515.174h120.545c11.039 0 19.988-8.95 19.988-19.968v-120.545c0-11.059-8.95-19.988-19.988-19.988h-120.545c-0.006 0-0.013 0-0.020 0-11.028 0-19.968 8.94-19.968 19.968 0 0.007 0 0.014 0 0.022v-0.001 120.545c0 11.018 8.95 19.968 19.988 19.968zM777.503 394.65h80.527v80.527h-80.527v-80.527z" />
<glyph unicode="&#xe90f;" glyph-name="16" horiz-adv-x="640" d="M610.88 564.288h-240.768l207.872 353.728c2.383 3.99 3.792 8.801 3.792 13.94 0 5.228-1.458 10.115-3.989 14.278l0.069-0.122c-5.24 8.463-14.474 14.016-25.005 14.016-0.052 0-0.104 0-0.155 0h-349.048c-0.094 0.001-0.206 0.002-0.317 0.002-12.513 0-23.17-7.944-27.203-19.064l-0.064-0.201-174.528-508.352c-0.953-2.664-1.503-5.737-1.503-8.939 0-6.186 2.056-11.893 5.521-16.473l-0.050 0.069c5.467-7.148 14-11.712 23.599-11.712 0.006 0 0.012 0 0.018 0h246.783l-157.184-356.608c-1.474-3.264-2.333-7.076-2.333-11.089 0-10.014 5.349-18.779 13.345-23.593l0.124-0.069c4.43-2.78 9.814-4.429 15.583-4.429 8.576 0 16.301 3.643 21.712 9.466l0.017 0.018 465.472 508.288c4.539 4.893 7.324 11.468 7.324 18.694 0 4.177-0.93 8.136-2.595 11.682l0.071-0.168c-4.784 9.919-14.762 16.641-26.311 16.641-0.088 0-0.175 0-0.263-0.001h0.013z" />
<glyph unicode="&#xe910;" glyph-name="17" horiz-adv-x="1097" d="M1032.85 582.144c-6.42 19.308-23.477 33.342-44.050 35.24l-0.202 0.015-279.625 25.381-110.446 258.56c-8.015 18.606-26.194 31.395-47.36 31.395s-39.345-12.789-47.232-31.061l-0.128-0.334-110.519-258.56-279.625-25.381c-20.782-1.942-37.845-15.96-44.218-34.891l-0.106-0.364c-1.598-4.755-2.52-10.232-2.52-15.923 0-15.436 6.783-29.288 17.53-38.738l0.058-0.050 211.31-185.198-62.318-274.286c-0.812-3.426-1.278-7.36-1.278-11.402 0-28.439 23.054-51.493 51.493-51.493 9.762 0 18.89 2.717 26.668 7.435l-0.229-0.129 241.079 144.018 241.006-144.018c7.597-4.687 16.804-7.463 26.66-7.463 28.358 0 51.346 22.989 51.346 51.346 0 4.152-0.493 8.189-1.423 12.056l0.071-0.35-62.318 274.286 211.383 185.198c10.777 9.486 17.542 23.31 17.542 38.715 0 5.719-0.932 11.22-2.653 16.359l0.105-0.363z" />
<glyph unicode="&#xe911;" glyph-name="18" horiz-adv-x="1408" d="M1292.288 712.064l-724.096-724.096-452.48 452.48 180.992 181.12 271.488-271.616 543.104 542.976 180.992-180.864z" />
<glyph unicode="&#xe912;" glyph-name="19" horiz-adv-x="1365" d="M1365.333 391.111h-1118.151l345.259-345.259-80.441-80.441-482.702 482.702 482.702 482.702 80.441-80.441-345.486-345.486h1118.379v-113.778z" />
<glyph unicode="&#xe913;" glyph-name="20" horiz-adv-x="1365" d="M1255.595 367.673l-402.261-402.261-80.441 80.441 345.202 345.259h-1118.094v113.778h1118.379l-345.486 345.486 80.441 80.498 482.702-482.759-80.441-80.441z" />
<glyph unicode="&#xe914;" glyph-name="21" horiz-adv-x="1265" d="M916.42 923.678c-7.729 8.192-18.659 13.292-30.78 13.292s-23.051-5.1-30.761-13.271l-0.019-0.021c-7.905-8.285-12.77-19.531-12.77-31.913 0-0.068 0-0.135 0-0.203v0.010-136.072h-304.851c-24.034 0-43.55-20.299-43.55-45.357s19.516-45.417 43.55-45.417h348.401c24.034 0 43.55 20.36 43.55 45.417v71.921l199.74-208.053-199.74-208.053v71.981c0 25.058-19.516 45.417-43.55 45.417h-479.051v136.011c0 25.118-19.516 45.357-43.55 45.357-12.109-0.027-23.026-5.103-30.764-13.234l-0.017-0.018-304.851-317.56c-7.918-8.339-12.787-19.638-12.787-32.075s4.87-23.736 12.806-32.096l-0.019 0.020 304.851-317.56c7.749-8.165 18.665-13.261 30.771-13.312h0.010c0.035 0 0.077 0 0.119 0 5.996 0 11.691 1.286 16.825 3.598l-0.259-0.104c15.965 7.255 26.867 23.063 26.867 41.417 0 0.157-0.001 0.314-0.002 0.47v-0.024 136.132h304.851c24.034 0 43.55 20.299 43.55 45.357s-19.516 45.417-43.55 45.417h-348.401c-24.034 0-43.55-20.36-43.55-45.417v-71.921l-199.74 208.053 199.74 207.992v-71.921c0-25.058 19.516-45.417 43.55-45.417h479.051v-136.072c0-24.998 19.516-45.297 43.55-45.297 12.109 0.027 23.026 5.103 30.764 13.234l0.017 0.018 304.851 317.56c7.918 8.339 12.787 19.638 12.787 32.075s-4.87 23.736-12.806 32.096l0.019-0.020-304.851 317.56z" />
<glyph unicode="&#xe915;" glyph-name="22" horiz-adv-x="1216" d="M1120.448 876.096c-56.384 54.912-134.4 82.368-233.92 82.368-27.52 0-55.68-4.8-84.288-14.272-28.672-9.536-55.36-22.4-80-38.528-24.64-16.192-45.824-31.36-63.616-45.504-18.488-14.856-35.011-29.655-50.716-45.276l0.028 0.028c-15.654 15.647-32.158 30.447-49.435 44.325l-1.189 0.923c-18.185 14.425-38.92 29.399-60.307 43.461l-3.309 2.043c-23.021 15.276-49.487 28.325-77.589 37.821l-2.411 0.707c-25.102 8.831-54.049 14.038-84.18 14.271l-0.108 0.001c-99.52 0-177.472-27.456-233.92-82.368-56.448-54.976-84.672-131.2-84.672-228.672 0-29.632 5.248-60.224 15.68-91.648 10.496-31.488 22.336-58.304 35.648-80.384 13.376-22.144 28.48-43.776 45.376-64.832 16.832-20.992 29.184-35.584 36.992-43.52 7.744-8 13.824-13.76 18.24-17.28l415.872-400.128c7.283-7.394 17.404-11.974 28.594-11.974 0.252 0 0.504 0.002 0.755 0.007l-0.038-0.001c0.209-0.004 0.455-0.006 0.702-0.006 11.216 0 21.362 4.579 28.671 11.97l0.004 0.004 415.168 398.784c101.76 101.44 152.64 201.152 152.64 299.008 0 97.536-28.288 173.696-84.672 228.672zM994.496 410.816l-386.56-371.456-387.2 372.16c-83.072 82.88-124.544 161.536-124.544 235.904 0 35.904 4.736 67.648 14.272 95.040 9.6 27.52 21.824 49.28 36.672 65.472 14.912 16.192 32.96 29.376 54.336 39.552 21.312 10.176 42.176 17.088 62.656 20.608 19.145 3.382 41.187 5.315 63.681 5.315 0.562 0 1.124-0.001 1.686-0.004h-0.087c23.104 0 48-5.632 74.624-16.96 26.688-11.264 51.264-25.472 73.664-42.496 22.4-17.088 41.6-33.024 57.664-47.872 15.936-14.848 29.312-28.48 39.936-40.896 7.414-8.96 18.537-14.626 30.983-14.626 0.583 0 1.163 0.012 1.74 0.037l-0.082-0.003c0.522-0.024 1.134-0.038 1.748-0.038 12.438 0 23.553 5.668 30.901 14.562l0.054 0.068c10.624 12.416 24 26.048 39.936 40.896 16.064 14.848 35.264 30.784 57.664 47.872 21.294 16.283 45.542 30.525 71.446 41.649l2.218 0.847c26.688 11.328 51.52 16.96 74.624 16.96s44.864-1.792 65.28-5.312c20.48-3.52 41.344-10.432 62.72-20.608 21.312-10.176 39.424-23.36 54.272-39.552 14.912-16.192 27.072-37.952 36.672-65.472 9.536-27.392 14.336-59.136 14.336-95.040 0-74.368-41.792-153.28-125.312-236.608z" />
<glyph unicode="&#xe916;" glyph-name="23" horiz-adv-x="858" d="M857.226 209.187c-17.848-55.048-41.613-102.896-71.28-146.398l1.261 1.959c-40.157-59.032-85.656-125.98-159.772-127.391-34.65-0.637-58.091 9.631-80.868 19.567-23.109 10.046-46.993 20.452-84.411 20.452-39.327 0-64.429-10.738-88.673-21.144-21.587-9.271-43.949-18.875-74.863-20.12l-3.764-0.055c-65.785 0-113.83 62.049-161.294 131.155-95.066 138.24-149.725 366.205-63.737 516.4 45.194 79.208 127.197 129.19 213.988 130.491h2.629c37.334 0 72.593-14.059 103.701-26.486 23.248-9.299 43.34-17.325 58.811-17.325 13.782 0 33.764 7.915 56.874 17.104 33.515 13.284 75.195 29.862 118.729 29.862 5.59 0 11.126-0.277 16.522-0.83 37.058-1.578 129.107-14.945 189.163-103.452 1.273-1.854 1.744-4.179 1.273-6.393-0.46-2.266-1.791-4.159-3.621-5.35l-0.032-0.020-0.803-0.526c-17.436-10.877-104.448-70.85-103.341-184.099 1.19-139.43 115.712-190.575 128.747-195.944 3.222-1.228 5.469-4.292 5.469-7.882 0-0.953-0.158-1.868-0.45-2.722l0.018 0.059-0.277-0.913zM451.197 710.753c-3.825 0.014-7.589 0.165-11.315 0.447l0.521-0.032c-3.946 0.343-7.091 3.374-7.606 7.236l-0.005 0.043c-8.22 62.768 23.054 125.066 55.075 162.429 37.694 44.447 100.712 77.021 153.268 79.152 0.090 0.003 0.195 0.005 0.301 0.005 4.302 0 7.847-3.239 8.33-7.411l0.004-0.039c6.089-55.96-14.059-118.424-53.885-167.078-37.86-46.108-93.295-74.752-144.688-74.752z" />
<glyph unicode="&#xe917;" glyph-name="24" horiz-adv-x="941" d="M897.494 521.036l-768.498 427.949c-12.279 6.948-26.967 11.043-42.61 11.043-0.042 0-0.085 0-0.127 0h0.007l-0.913-0.028c-1.993 0-3.958-0.138-5.923-0.249l-2.685-0.277c-1.55-0.166-3.044-0.387-4.594-0.609-0.554-0.111-1.135-0.138-1.688-0.221l0.055-0.028c-10.385-1.909-19.653-5.376-28.049-10.19l0.429 0.227c-25.709-14.489-42.823-41.552-42.98-72.627v-855.948c0-29.945 16.384-57.648 42.98-72.676 8.662-4.899 18.045-8.192 27.593-9.908l-0.028-0.055 1.522-0.194c2.052-0.384 4.595-0.708 7.175-0.899l0.242-0.014c1.965-0.166 3.902-0.221 5.84-0.221 0.308-0.053 0.662-0.083 1.024-0.083v0c14.723 0 29.475 3.681 42.731 11.070l768.498 427.921c25.971 14.453 43.289 41.676 43.451 72.958v0.106c0 30.166-16.578 57.981-43.451 72.953zM593.588 606.028l-76.413-97.64-194.422 248.5 270.834-150.86zM860.243 438.535l-537.489-299.312 336.536 430.135 200.925-111.92c3.392-1.85 5.655-5.39 5.655-9.459 0-4.058-2.251-7.59-5.571-9.416l-0.056-0.028z" />
<glyph unicode="&#xe918;" glyph-name="25" d="M21.805 520.282c-10.119 4.955-16.964 15.178-16.964 26.999 0 12.562 7.729 23.318 18.691 27.773l0.201 0.072 957.922 383.307-608.437-608.648-351.413 170.496zM640.904-42.255c-4.409-10.83-14.669-18.414-26.752-18.852l-0.053-0.002h-1.054c-0.006 0-0.012 0-0.019 0-11.795 0-21.998 6.814-26.888 16.721l-0.078 0.175-170.436 351.563 608.437 608.648-383.157-958.253z" />
<glyph unicode="&#xe919;" glyph-name="26" d="M591.744 603.36l-30.976 69.504c-11.55-5.246-25.047-8.303-39.259-8.303-39.808 0-74.014 23.99-88.947 58.302l-0.243 0.626h262.176v38.048c0 95.2-77.408 172.704-172.64 173.088h-0.704c-95.264-0.384-172.64-77.888-172.64-173.088 0.055-95.511 77.403-172.938 172.879-173.12h0.017c24.448 0 48.128 5.024 70.336 14.944zM521.504 858.528c39.76-0.143 73.893-24.086 88.907-58.318l0.245-0.626h-178.304c15.259 34.858 49.392 58.801 89.134 58.944h0.018zM998.624 664.512v-76.096h-114.048v346.208h76.032v-270.112h38.016zM850.368 588.416h-114.080v346.208h76.064v-270.112h38.016v-76.096zM403.648 521.248v-479.616l131.968 113.024 92.256-193.248 68.608 32.768-91.296 191.2 191.648 19.456-393.184 316.416zM479.68 362.4l124.992-100.576-69.056-7.008-55.936-47.936v155.52zM214.496 588.416h-189.12v76.096h189.12c15.871 0.539 28.532 13.535 28.532 29.488s-12.661 28.949-28.483 29.487l-0.049 0.001h-83.616c-58.254 0.091-105.449 47.309-105.504 105.563v0.005c0.055 58.259 47.25 105.477 105.495 105.568h149.225v-76.096h-149.216c-15.693-0.754-28.13-13.661-28.13-29.472s12.438-28.718 28.063-29.469l0.067-0.003h83.616c58.265-0.091 105.468-47.327 105.504-105.596v-0.004c-0.055-58.259-47.25-105.477-105.495-105.568h-0.009zM25.376 519.936h302.24v-76.096h-302.24v76.096zM519.616 519.936h479.008v-76.096h-383.968l-95.040 76.096z" />
<glyph unicode="&#xe91a;" glyph-name="27" horiz-adv-x="870" d="M90.24 247.066h86.246v-57.395h57.472v401.843h-57.472v-57.395h-57.498v28.698c0 175.155 141.85 317.67 316.211 317.67 174.336 0 316.211-142.515 316.211-317.67v-28.698h-57.498v57.395h-57.498v-401.843h57.498v57.395h57.498v-88.013c-0.087-47.572-38.665-86.104-86.245-86.118h-148.686c-12.267 33.671-44.004 57.281-81.255 57.281-47.543 0-86.104-38.458-86.271-85.962v-0.016c0.167-47.52 38.728-85.978 86.271-85.978 37.251 0 68.988 23.609 81.063 56.681l0.191 0.6h148.685c79.258 0 143.744 64.358 143.744 143.514v92.954c33.737 12.188 57.429 43.907 57.498 81.169v114.824c-0.069 37.27-23.76 68.989-56.897 80.988l-0.601 0.19v33.638c0 206.822-167.654 375.066-373.709 375.066s-373.709-168.243-373.709-375.066v-33.638c-33.737-12.188-57.429-43.907-57.498-81.169v-114.824c0.087-47.572 38.665-86.104 86.245-86.118h0.001zM435.2 15.539c0 0 0 0 0 0-15.86 0-28.72 12.842-28.749 28.695v0.003c0 15.878 12.871 28.749 28.749 28.749s28.749-12.871 28.749-28.749v0c0-15.821-12.902-28.698-28.749-28.698zM808.909 448v-114.816c0-15.821-12.902-28.698-28.749-28.698h-86.246v172.237h86.246c15.846 0 28.749-12.877 28.749-28.723zM61.491 448c0 15.846 12.902 28.723 28.749 28.723h86.246v-172.237h-86.246c0 0 0 0 0 0-15.86 0-28.72 12.842-28.749 28.695v114.819z" />
<glyph unicode="&#xe91b;" glyph-name="28" horiz-adv-x="1179" d="M202.131 245.62c-0.441-0.020-0.958-0.031-1.478-0.031-19.451 0-35.219 15.768-35.219 35.219s15.768 35.219 35.219 35.219c0.52 0 1.037-0.011 1.551-0.034l-0.073 0.003h140.878c0.441 0.020 0.958 0.031 1.478 0.031 19.451 0 35.219-15.768 35.219-35.219s-15.768-35.219-35.219-35.219c-0.52 0-1.037 0.011-1.551 0.034l0.073-0.003h-140.878zM1082.709-35.918h-986.267c-38.88 0-70.403 31.501-70.439 70.373v633.456c0.035 38.876 31.558 70.377 70.439 70.377h387.475c18.805-0.814 33.741-16.257 33.741-35.188s-14.937-34.374-33.668-35.186l-0.073-0.003h-387.475v-140.784h387.475c0.441 0.020 0.958 0.031 1.478 0.031 19.451 0 35.219-15.768 35.219-35.219s-15.768-35.219-35.219-35.219c-0.52 0-1.037 0.011-1.551 0.034l0.073-0.003h-387.475v-422.291h986.267v246.35c0 19.451 15.768 35.219 35.219 35.219s35.219-15.768 35.219-35.219v0-246.35c-0.035-38.876-31.558-70.377-70.439-70.377v0zM888.894 250.275c-5.035-2.93-11.082-4.66-17.532-4.66s-12.497 1.73-17.701 4.75l0.169-0.091c-192.605 110.84-264.254 224.008-264.254 417.637v140.753c0 14.088 8.378 26.81 21.287 32.365l246.536 105.596c8.968 3.724 18.897 3.724 27.834 0l246.567-105.596c12.971-5.554 21.349-18.277 21.349-32.365v-140.753c0-193.908-71.649-307.076-264.254-417.637zM1082.709 785.455l-211.347 90.484-211.347-90.484v-117.543c0-162.32 53.838-251.749 211.347-346.267 157.51 94.301 211.347 183.761 211.347 346.267v117.543zM836.143 491.939h-1.489c-11.598 0.587-21.669 6.636-27.754 15.608l-0.080 0.125-70.439 105.534c-3.347 5.29-5.333 11.73-5.333 18.633 0 19.451 15.768 35.219 35.219 35.219 11.813 0 22.268-5.816 28.657-14.741l0.072-0.106 43.815-65.443 110.747 138.364c6.566 8.021 16.467 13.099 27.554 13.099 8.328 0 15.987-2.865 22.044-7.664l-0.074 0.057c15.205-12.195 17.594-34.288 5.492-49.493l-140.909-175.942c-6.503-8.105-16.407-13.25-27.512-13.25-0.004 0-0.008 0-0.012 0h0.001z" />
<glyph unicode="&#xe91c;" glyph-name="29" horiz-adv-x="1609" d="M1528.686 740.571l-724.114-724.114-724.114 724.114 206.848 206.848 517.266-517.12 517.12 517.12 206.994-206.848z" />
<glyph unicode="&#xe91d;" glyph-name="30" d="M808.421 528.842c-119.061 0-215.579 96.518-215.579 215.579s96.518 215.579 215.579 215.579v0c119.061 0 215.579-96.518 215.579-215.579s-96.518-215.579-215.579-215.579v0zM808.421 852.211c-0.726 0.018-1.58 0.028-2.437 0.028-59.53 0-107.789-48.259-107.789-107.789s48.259-107.789 107.789-107.789c0.838 0 1.674 0.010 2.507 0.029l-0.124-0.002c58.496 1.334 105.406 49.071 105.406 107.763 0 58.674-46.88 106.398-105.226 107.76l-0.127 0.002zM215.579-64c-119.061 0-215.579 96.518-215.579 215.579s96.518 215.579 215.579 215.579v0c119.061 0 215.579-96.518 215.579-215.579s-96.518-215.579-215.579-215.579v0zM215.579 259.368c-0.726 0.018-1.58 0.028-2.437 0.028-59.53 0-107.789-48.259-107.789-107.789s48.259-107.789 107.789-107.789c0.838 0 1.674 0.010 2.507 0.029l-0.124-0.002c58.496 1.334 105.406 49.071 105.406 107.763 0 58.674-46.88 106.398-105.226 107.76l-0.127 0.002zM215.579 528.842c-119.061 0-215.579 96.518-215.579 215.579s96.518 215.579 215.579 215.579v0c119.061 0 215.579-96.518 215.579-215.579s-96.518-215.579-215.579-215.579v0zM215.579 852.211c-0.726 0.018-1.58 0.028-2.437 0.028-59.53 0-107.789-48.259-107.789-107.789s48.259-107.789 107.789-107.789c0.838 0 1.674 0.010 2.507 0.029l-0.124-0.002c58.496 1.334 105.406 49.071 105.406 107.763 0 58.674-46.88 106.398-105.226 107.76l-0.127 0.002zM808.421 367.158c119.061 0 215.579-96.518 215.579-215.579s-96.518-215.579-215.579-215.579v0c-119.061 0-215.579 96.518-215.579 215.579s96.518 215.579 215.579 215.579v0zM808.421 43.789c59.53 0 107.789 48.259 107.789 107.789s-48.259 107.789-107.789 107.789v0c-59.53 0-107.789-48.259-107.789-107.789s48.259-107.789 107.789-107.789v0z" />
<glyph unicode="&#xe91e;" glyph-name="31" horiz-adv-x="1609" d="M1556.846 375.003h-1503.744c-28.891 0-52.297 16.384-52.297 36.498v72.631c0 20.114 23.406 36.425 52.297 36.425h1503.744c28.891 0 52.297-16.311 52.297-36.425v-72.631c0-20.114-23.406-36.498-52.297-36.498zM1556.846 813.934h-1503.744c-28.891 0-52.297 16.311-52.297 36.425v72.631c0 20.114 23.406 36.425 52.297 36.425h1503.744c28.891 0 52.297-16.311 52.297-36.425v-72.631c0-20.114-23.406-36.425-52.297-36.425zM53.102 81.701h845.458c28.891 0 52.297-16.311 52.297-36.425v-72.631c0-20.114-23.406-36.498-52.297-36.498h-845.458c-28.891 0-52.297 16.384-52.297 36.498v72.631c0 20.114 23.406 36.425 52.297 36.425z" />
<glyph unicode="&#xe91f;" glyph-name="32" horiz-adv-x="1103" d="M1101.194 571.195c-4.007 11.347-13.893 19.656-25.904 21.327l-0.169 0.019-341.858 48.364-152.891 301.529c-5.471 10.512-16.282 17.566-28.741 17.566-0.086 0-0.173 0-0.259-0.001h0.013c-0.050 0-0.109 0-0.167 0-12.459 0-23.27-7.055-28.656-17.387l-0.085-0.179-152.891-301.529-341.858-48.364c-12.187-1.672-22.082-9.989-26.004-21.122l-0.069-0.225c-0.995-2.905-1.57-6.252-1.57-9.733 0-8.889 3.746-16.902 9.746-22.548l0.016-0.015 247.335-234.732-58.368-331.382c-0.293-1.602-0.461-3.447-0.461-5.33 0-10.503 5.217-19.787 13.202-25.403l0.099-0.066c5.288-3.744 11.872-5.985 18.978-5.985 5.494 0 10.674 1.339 15.234 3.708l-0.184-0.087 305.703 156.436 305.782-156.436c4.378-2.331 9.573-3.701 15.089-3.701 7.105 0 13.68 2.272 19.036 6.13l-0.097-0.066c8.077 5.715 13.286 15.020 13.286 25.541 0 1.858-0.162 3.677-0.474 5.446l0.027-0.187-58.368 331.382 247.335 234.732c6.016 5.661 9.762 13.674 9.762 22.563 0 3.481-0.575 6.828-1.634 9.951l0.064-0.218zM758.626 360.33c-5.276-4.763-8.577-11.626-8.577-19.261 0-1.572 0.14-3.111 0.408-4.606l-0.023 0.157 43.953-242.846-229.849 114.688c-3.824 1.937-8.337 3.071-13.115 3.071s-9.291-1.134-13.284-3.149l0.169 0.077-229.849-114.688 43.874 242.846c0.244 1.339 0.383 2.879 0.383 4.452 0 7.618-3.267 14.473-8.476 19.24l-0.020 0.018-185.895 171.874 256.945 35.446c9.232 1.258 16.951 6.79 21.193 14.504l0.074 0.147 114.846 220.948 114.924-220.948c4.096-7.877 12.052-13.391 21.268-14.651l256.945-35.446-185.895-171.874z" />
</font>
</defs>
</svg>
